<?xml version="1.0" standalone="no"?>
<!DOCTYPE svg PUBLIC "-//W3C//DTD SVG 20010904//EN"
 "http://www.w3.org/TR/2001/REC-SVG-20010904/DTD/svg10.dtd">
<svg version="1.0" xmlns="http://www.w3.org/2000/svg"
 width="135.000000pt" height="135.000000pt" viewBox="0 0 135.000000 135.000000"
 preserveAspectRatio="xMidYMid meet">
<metadata>
Created by potrace 1.14, written by Peter Selinger 2001-2017
</metadata>
<g transform="translate(0.000000,135.000000) scale(0.100000,-0.100000)"
fill="#000000" stroke="none">
<path d="M577 1329 c-9 -6 -17 -6 -18 -2 -1 4 -4 -3 -8 -17 -4 -14 -3 -31 2
-37 6 -9 5 -13 -4 -13 -11 0 -11 -2 1 -10 8 -5 10 -10 4 -10 -8 0 -10 -11 -4
-33 4 -18 3 -43 -1 -55 -5 -13 -5 -21 0 -18 5 3 12 -1 15 -10 4 -10 2 -13 -7
-8 -6 4 -4 -2 6 -14 11 -11 25 -18 33 -15 17 6 29 46 21 68 -4 8 -2 17 3 20 7
4 7 13 0 24 -6 12 -5 22 2 29 8 8 8 12 2 12 -12 0 -13 45 -1 56 4 4 7 12 7 18
0 6 -5 4 -10 -4 -8 -13 -10 -13 -10 2 0 23 -12 28 -33 17z"/>
<path d="M854 1288 c-21 -34 -54 -104 -54 -115 0 -7 -5 -13 -11 -13 -5 0 -8
-4 -5 -9 3 -4 -1 -16 -8 -27 -8 -10 -11 -25 -8 -33 3 -9 1 -12 -6 -7 -8 4 -10
2 -6 -7 7 -18 48 -31 52 -17 2 6 10 17 19 25 8 8 12 15 9 15 -3 0 1 12 9 27 8
15 12 30 9 35 -3 4 -1 8 5 8 5 0 15 17 22 38 6 20 17 43 23 51 8 11 8 13 -1 7
-7 -4 -13 -2 -13 3 0 6 -7 11 -16 11 -8 0 -12 5 -9 10 3 6 4 10 1 10 -3 0 -8
-6 -12 -12z"/>
<path d="M276 1244 c-9 -24 -7 -36 6 -28 6 4 8 3 4 -4 -9 -14 14 -63 27 -55 6
3 7 2 4 -4 -7 -11 14 -63 26 -63 4 0 7 -9 7 -19 0 -11 9 -23 20 -26 11 -3 20
-11 20 -16 0 -5 6 -4 14 3 17 16 14 77 -5 89 -8 4 -14 12 -15 16 -2 24 -50
103 -63 103 -14 0 -14 1 -1 10 12 8 9 10 -11 10 -15 0 -29 -7 -33 -16z"/>
<path d="M1061 1089 c-17 -17 -31 -28 -31 -24 0 4 -12 -7 -26 -24 -14 -17 -33
-31 -42 -31 -8 0 -12 -3 -9 -6 4 -4 -3 -15 -15 -25 -11 -11 -16 -19 -9 -19 7
0 9 -5 6 -10 -3 -6 1 -13 10 -16 17 -7 86 36 79 48 -3 4 0 8 6 8 6 0 21 11 34
25 13 14 28 25 34 25 6 0 18 13 26 28 13 26 13 29 -5 40 -25 16 -23 16 -58
-19z"/>
<path d="M90 1069 c0 -6 -6 -9 -14 -6 -9 4 -16 -3 -20 -15 -3 -15 3 -28 22
-45 15 -13 31 -23 35 -23 5 0 5 -5 1 -12 -4 -6 -3 -8 3 -5 6 4 21 -2 34 -13
13 -11 29 -24 35 -28 24 -21 54 -33 54 -22 0 6 5 8 10 5 6 -3 10 -3 11 2 0 4
2 16 4 25 2 10 -5 20 -16 23 -11 4 -16 11 -13 17 5 7 2 9 -7 6 -16 -5 -51 27
-41 38 4 4 1 4 -6 0 -8 -5 -21 -1 -30 8 -53 48 -62 55 -62 45z"/>
<path d="M598 1015 c-3 -3 -20 -8 -38 -10 -18 -2 -39 -10 -48 -17 -13 -11 -14
-11 -7 2 8 13 7 13 -8 1 -9 -7 -17 -10 -17 -7 0 4 -10 -2 -22 -14 -12 -11 -30
-20 -40 -20 -11 0 -16 -4 -13 -10 3 -5 2 -10 -3 -10 -15 0 -55 -42 -81 -82
-12 -21 -27 -38 -32 -38 -6 0 -7 -5 -4 -10 4 -6 1 -17 -5 -25 -7 -8 -9 -15 -4
-15 5 0 1 -5 -9 -11 -13 -8 -15 -15 -7 -28 5 -10 6 -21 3 -25 -13 -13 -15 -58
-2 -51 8 6 8 2 0 -14 -7 -12 -8 -21 -2 -21 5 0 7 -9 4 -20 -3 -13 0 -20 8 -20
11 0 11 -2 -1 -10 -10 -6 -11 -10 -2 -10 6 0 11 -3 10 -7 -2 -13 20 -61 32
-68 5 -3 8 -10 5 -15 -3 -4 2 -10 10 -14 15 -5 16 -31 2 -53 -5 -7 -5 -13 0
-13 4 0 2 -4 -6 -9 -13 -8 -13 -12 0 -27 9 -11 9 -15 2 -10 -7 4 -13 2 -13 -3
0 -6 6 -11 13 -12 6 0 1 -5 -12 -10 -14 -6 -21 -15 -18 -23 3 -8 1 -17 -6 -20
-7 -4 -2 -4 10 -2 13 2 26 0 29 -5 3 -5 10 -7 15 -4 5 4 9 1 9 -4 0 -14 -17
-14 -25 -1 -5 8 -11 8 -19 1 -7 -6 -16 -8 -19 -4 -4 3 -7 -1 -7 -11 0 -11 -5
-15 -12 -10 -7 4 -4 -2 7 -13 11 -11 24 -18 29 -15 5 3 6 0 2 -7 -4 -6 -11 -9
-15 -7 -14 9 -35 -13 -37 -38 0 -14 2 -23 6 -21 4 2 13 -7 20 -20 7 -13 16
-22 20 -20 4 2 18 -3 31 -13 13 -9 31 -17 39 -17 8 0 14 -6 12 -13 -1 -8 2
-11 8 -7 6 4 16 3 23 -2 7 -5 18 -8 25 -7 6 1 17 2 23 3 5 0 7 6 4 11 -5 9 16
15 38 11 5 -1 6 3 3 8 -4 5 2 14 11 20 10 6 14 11 8 11 -5 0 -4 4 4 9 17 11 4
34 -15 27 -8 -3 -11 0 -7 10 4 11 9 12 19 3 11 -9 14 -9 14 0 0 7 4 10 9 7 5
-3 12 2 16 11 3 10 1 19 -4 21 -6 2 -11 8 -11 13 0 6 5 7 10 4 6 -3 10 -1 10
4 0 6 3 10 8 10 18 -3 21 3 12 26 -8 20 -7 23 7 18 11 -4 14 -3 9 5 -4 8 3 16
18 22 14 5 26 14 26 20 0 5 5 10 11 10 5 0 7 -6 3 -13 -6 -9 -5 -9 8 0 8 7 18
10 21 6 4 -3 7 -1 7 6 0 7 5 9 10 6 6 -3 10 0 10 7 0 9 3 9 10 -2 6 -10 10
-11 10 -2 0 6 5 12 12 12 6 0 26 11 45 26 18 14 33 23 33 20 0 -6 66 57 67 64
1 17 16 39 24 34 5 -3 6 2 3 10 -3 9 -1 16 6 16 6 0 9 4 5 9 -3 5 0 13 6 16 5
4 8 13 5 21 -3 8 -1 14 3 14 5 0 12 7 15 16 4 10 2 13 -6 8 -7 -5 -8 -3 -2 7
13 20 14 140 1 132 -6 -4 -8 0 -4 10 3 9 2 19 -4 23 -6 3 -8 11 -6 18 3 6 -1
20 -9 30 -7 11 -11 23 -8 27 3 5 0 9 -6 9 -6 0 -8 5 -4 12 4 6 3 8 -3 5 -6 -4
-21 9 -34 28 -13 19 -29 35 -34 35 -6 0 -17 9 -25 20 -8 11 -20 20 -28 20 -7
0 -11 3 -9 8 3 4 -6 8 -20 9 -14 0 -28 5 -32 11 -3 5 -14 8 -24 6 -9 -1 -14 2
-11 7 3 6 -13 8 -40 5 -25 -2 -46 0 -48 6 -2 5 -6 6 -10 3z m-238 -699 c0 -3
-4 -8 -10 -11 -5 -3 -10 -1 -10 4 0 6 5 11 10 11 6 0 10 -2 10 -4z m34 -4 c3
-5 -1 -9 -9 -9 -8 0 -15 4 -15 9 0 4 4 8 9 8 6 0 12 -4 15 -8z m81 -30 c-2 -2
-14 2 -27 9 -12 7 -27 12 -31 11 -5 -1 -6 2 -3 7 4 6 18 3 36 -7 16 -9 27 -18
25 -20z m59 2 c6 2 8 1 3 -1 -4 -3 -4 -10 0 -16 4 -7 -1 -6 -10 2 -9 7 -17 10
-17 7 0 -4 -5 -4 -10 -1 -6 4 -7 11 -4 17 4 6 10 6 16 0 6 -6 16 -9 22 -8z
m36 -24 c0 -5 -2 -10 -4 -10 -3 0 -8 5 -11 10 -3 6 -1 10 4 10 6 0 11 -4 11
-10z m-185 -18 c-3 -3 -11 0 -18 7 -9 10 -8 11 6 5 10 -3 15 -9 12 -12z m90
-14 l20 2 -20 -9 c-12 -5 -25 -5 -32 1 -9 7 -13 7 -13 -2 0 -8 -3 -11 -6 -7
-10 10 7 28 19 20 7 -4 21 -7 32 -5z m65 -34 c0 -2 -9 0 -20 6 -11 6 -20 13
-20 16 0 2 9 0 20 -6 11 -6 20 -13 20 -16z m-118 -26 c10 0 20 -3 23 -7 2 -5
-10 -6 -28 -4 -17 2 -40 5 -49 6 -10 1 -18 5 -18 9 0 5 12 5 28 1 15 -3 35 -6
44 -5z"/>
<path d="M1182 852 c-7 -2 -10 -7 -8 -10 2 -4 -8 -8 -22 -9 -64 -4 -82 -9 -87
-20 -2 -7 -11 -13 -19 -13 -24 0 -27 -16 -8 -38 12 -14 23 -18 32 -12 8 5 18
6 22 4 4 -3 8 -1 8 5 0 5 9 8 20 6 11 -2 32 3 48 10 15 8 42 15 59 17 22 1 29
6 25 17 -3 8 -1 12 4 8 6 -3 10 5 10 19 0 22 -4 24 -36 22 -20 -1 -41 -3 -48
-6z"/>
<path d="M1051 590 c-17 -13 -18 -18 -7 -32 7 -10 16 -15 19 -11 4 3 7 1 7 -5
0 -6 8 -11 18 -11 9 0 33 -2 52 -5 19 -3 47 -7 63 -8 15 -1 27 -5 27 -8 0 -4
7 -7 15 -7 8 0 15 7 15 14 0 8 4 12 9 8 17 -10 20 12 5 34 -13 17 -19 20 -30
10 -12 -10 -18 -6 -16 12 0 3 -13 4 -29 3 -16 -1 -29 3 -29 9 0 7 -5 5 -10 -3
-5 -8 -10 -10 -10 -4 0 19 -77 22 -99 4z"/>
<path d="M215 30 c-3 -5 -1 -10 4 -10 6 0 11 5 11 10 0 6 -2 10 -4 10 -3 0 -8
-4 -11 -10z"/>
<path d="M1241 26 c-10 -11 -9 -14 1 -12 14 2 23 15 15 22 -2 2 -10 -2 -16
-10z"/>
</g>
</svg>
